<?xml version="1.0" standalone="no"?>
<!DOCTYPE svg PUBLIC "-//W3C//DTD SVG 20010904//EN"
 "http://www.w3.org/TR/2001/REC-SVG-20010904/DTD/svg10.dtd">
<svg version="1.0" xmlns="http://www.w3.org/2000/svg"
 width="700.000000pt" height="478.000000pt" viewBox="0 0 700.000000 478.000000"
 preserveAspectRatio="xMidYMid meet">

<g transform="translate(0.000000,478.000000) scale(0.100000,-0.100000)"
fill="#000000" stroke="none">
<path d="M4285 4740 c-126 -65 -231 -281 -305 -630 -13 -58 -28 -108 -34 -112
-6 -4 -32 -8 -57 -8 -82 0 -94 39 -58 193 13 56 12 60 -6 74 -28 21 -97 11
-133 -18 -16 -13 -46 -52 -66 -86 -20 -35 -41 -63 -46 -63 -5 0 -11 39 -12 88
l-3 87 -40 0 c-36 0 -42 -4 -58 -37 -17 -34 -37 -129 -52 -240 -5 -40 -15 -56
-73 -117 -68 -72 -102 -87 -130 -59 -15 15 -16 136 -1 233 14 99 6 133 -36
151 -151 63 -306 -10 -392 -183 -34 -68 -38 -85 -41 -172 -4 -95 -4 -97 -41
-134 -63 -67 -66 -66 -66 21 0 66 -4 84 -28 124 -34 59 -72 86 -141 100 -42 9
-67 9 -107 0 -28 -7 -54 -11 -56 -8 -2 2 25 17 61 34 193 90 301 222 266 326
-26 80 -121 119 -290 118 -170 -1 -385 -66 -580 -175 -201 -112 -385 -335
-449 -541 -11 -37 -32 -81 -46 -98 -14 -16 -25 -36 -25 -43 0 -8 -8 -16 -18
-19 -32 -11 -92 -78 -102 -116 -5 -20 -13 -58 -16 -85 -4 -27 -15 -55 -27 -65
-25 -24 -16 -46 23 -55 31 -7 31 -7 23 -53 -4 -26 -8 -67 -8 -92 0 -38 3 -45
20 -45 17 0 22 11 34 85 8 47 15 87 17 88 4 6 154 -20 158 -27 2 -3 -2 -40 -9
-81 -14 -82 -11 -100 15 -100 21 0 25 9 41 103 l11 67 34 0 c37 0 54 21 35 43
-8 10 -8 36 1 94 14 94 3 149 -38 190 -13 13 -24 35 -24 49 0 14 -6 37 -14 52
-13 24 -11 35 14 111 59 175 232 366 430 474 151 82 288 124 441 134 168 11
248 -26 235 -107 -10 -67 -145 -165 -330 -239 -55 -22 -102 -45 -106 -52 -11
-18 0 -48 23 -61 19 -10 40 -9 232 8 63 5 74 4 105 -18 51 -34 72 -81 66 -144
-5 -64 -23 -99 -77 -152 -68 -69 -264 -148 -315 -128 -32 12 -143 279 -173
416 -13 57 -14 155 -2 198 8 27 7 34 -10 43 -28 15 -75 2 -98 -27 -14 -17 -20
-48 -25 -116 -12 -154 27 -296 148 -535 51 -104 59 -113 84 -113 45 0 317 93
435 148 125 59 226 124 281 180 l38 40 45 -20 c78 -34 146 -14 227 69 41 41
49 46 59 33 64 -83 162 -77 246 14 32 34 38 33 55 -8 18 -43 50 -54 83 -30 17
13 37 52 63 124 68 190 87 235 100 235 13 0 17 -10 34 -87 4 -15 20 -43 37
-63 38 -43 91 -59 150 -46 l42 9 -6 -58 c-7 -59 -6 -59 30 -89 73 -60 201 -81
295 -48 25 9 84 21 130 27 46 5 99 14 118 20 58 17 64 13 84 -42 42 -120 134
-164 324 -156 102 5 113 4 108 -11 -27 -81 -29 -100 -17 -115 8 -9 27 -16 44
-16 25 0 53 22 171 138 77 75 143 140 144 145 2 4 13 7 24 7 16 0 19 -4 14
-22 -4 -13 -10 -51 -13 -85 -11 -119 49 -168 226 -185 129 -12 174 -33 208
-97 56 -107 5 -261 -107 -319 -37 -19 -56 -23 -110 -19 -76 5 -108 20 -258
119 -129 86 -210 124 -288 137 -129 20 -240 -23 -350 -136 -40 -40 -76 -73
-81 -73 -11 0 -59 -59 -92 -112 -16 -27 -19 -38 -9 -38 7 -1 26 -6 41 -13 25
-11 20 -12 -50 -12 -86 0 -136 -20 -183 -70 -21 -22 -22 -28 -10 -35 23 -15
36 -12 76 15 20 14 39 23 42 21 2 -3 -6 -21 -18 -40 -14 -24 -17 -36 -9 -36 7
0 10 -2 8 -5 -3 -2 -33 5 -68 15 -75 24 -151 26 -191 5 -45 -24 -312 -353
-485 -598 -45 -64 -71 -93 -76 -85 -4 7 -17 71 -29 141 -25 149 -26 145 53
275 82 136 94 219 51 345 -32 95 -157 196 -263 213 -35 6 -47 2 -80 -20 -22
-15 -57 -53 -79 -84 -38 -54 -82 -170 -82 -215 0 -11 -18 -37 -40 -58 -45 -43
-49 -58 -20 -84 16 -14 24 -15 51 -6 39 13 47 9 96 -54 22 -27 72 -72 111
-100 90 -63 103 -87 136 -273 30 -164 32 -210 12 -238 -13 -17 -17 -18 -40 -4
-99 60 -301 246 -357 328 l-31 47 5 125 5 124 -71 74 c-96 99 -130 116 -232
116 -44 0 -109 -4 -145 -8 -65 -8 -66 -8 -156 38 -107 54 -197 71 -299 57 -77
-11 -85 -15 -85 -46 0 -32 21 -37 92 -19 73 19 132 13 205 -22 28 -14 65 -41
82 -60 30 -34 31 -37 31 -137 0 -122 22 -179 90 -241 74 -67 118 -80 255 -81
106 0 125 -3 164 -23 62 -33 288 -247 351 -332 50 -68 52 -72 39 -97 -12 -23
-14 -24 -18 -7 -4 25 -21 45 -32 38 -5 -3 -9 -34 -9 -69 0 -47 -5 -74 -20 -97
l-20 -33 0 90 c0 91 -9 123 -29 111 -7 -5 -11 -54 -11 -144 0 -120 -3 -141
-20 -167 l-20 -30 0 160 c0 156 -6 195 -29 181 -7 -5 -11 -73 -11 -214 -1
-185 -3 -211 -20 -242 l-19 -35 -1 235 c0 227 -5 270 -29 256 -8 -5 -11 -84
-11 -257 0 -242 -1 -249 -20 -249 -19 0 -20 7 -20 243 0 234 -5 277 -29 263
-8 -5 -11 -84 -11 -257 0 -242 -1 -249 -20 -249 -19 0 -20 7 -20 243 0 241 -6
285 -32 259 -10 -10 -13 -71 -13 -257 0 -227 -1 -245 -17 -245 -17 0 -18 18
-18 243 0 241 -6 285 -32 259 -10 -10 -14 -74 -16 -257 -3 -206 -5 -245 -17
-245 -13 0 -15 37 -15 244 0 197 -3 246 -14 255 -9 8 -16 8 -20 2 -4 -6 -7
-121 -7 -256 0 -237 0 -245 -19 -245 -19 0 -20 8 -20 244 0 203 -2 246 -15
256 -28 23 -35 -33 -35 -271 0 -197 -2 -229 -15 -229 -13 0 -15 34 -15 244 0
199 -3 246 -14 255 -31 26 -37 -21 -34 -264 3 -218 2 -235 -14 -235 -17 0 -18
18 -18 243 0 249 -6 291 -35 253 -12 -16 -15 -63 -15 -258 0 -205 -2 -238 -15
-238 -13 0 -15 33 -15 238 0 186 -3 242 -14 257 -29 40 -36 -13 -36 -259 0
-203 -2 -236 -15 -236 -13 0 -15 34 -15 244 0 199 -3 246 -14 255 -30 25 -36
-22 -36 -265 0 -215 -1 -237 -16 -223 -12 13 -16 57 -21 247 -3 127 -9 236
-13 243 -12 18 -59 2 -70 -24 -13 -29 -27 -561 -16 -586 16 -38 48 -41 437
-48 267 -4 379 -9 375 -17 -2 -6 -47 -102 -100 -213 -56 -117 -96 -214 -96
-232 0 -41 25 -62 130 -107 49 -21 88 -39 86 -41 -8 -8 -193 73 -213 93 -21
22 -22 22 -28 3 -7 -22 -1 -59 23 -136 l16 -53 -62 -60 c-34 -33 -62 -64 -62
-68 0 -5 140 -61 312 -125 l312 -116 165 111 c91 60 175 120 187 133 13 14 27
53 38 108 9 48 29 113 43 144 22 48 165 297 181 313 2 3 9 -3 16 -14 32 -54
318 -480 360 -536 47 -63 63 -80 79 -80 15 0 6 30 -40 126 -41 87 -95 173
-220 347 -19 26 -33 47 -30 47 3 0 82 -101 176 -224 94 -123 179 -230 188
-237 15 -13 16 -11 10 21 -5 34 -92 197 -314 592 -58 104 -103 194 -100 201 4
11 90 15 448 20 417 5 444 7 468 25 l26 19 -2 269 c-3 312 -5 331 -38 346 -54
24 -55 19 -55 -235 0 -227 -4 -257 -32 -257 -4 0 -8 104 -8 231 0 236 -6 283
-36 258 -11 -9 -14 -56 -14 -255 0 -210 -2 -244 -15 -244 -13 0 -15 32 -16
223 -1 231 -3 265 -20 282 -23 23 -29 -30 -29 -263 0 -226 -1 -243 -17 -240
-17 3 -18 24 -21 248 -2 236 -9 287 -32 250 -5 -8 -10 -123 -10 -258 0 -226
-1 -243 -17 -240 -17 3 -18 24 -20 247 -3 238 -9 289 -33 251 -5 -8 -10 -123
-10 -258 0 -226 -1 -243 -17 -240 -17 3 -18 24 -21 248 -2 236 -9 287 -32 250
-5 -8 -10 -123 -10 -257 0 -236 -1 -243 -20 -243 -19 0 -20 7 -20 249 0 173
-3 252 -11 257 -24 14 -29 -30 -29 -264 0 -226 -1 -243 -17 -240 -16 3 -18 25
-23 253 -5 226 -7 250 -22 249 -14 -1 -15 3 -6 25 24 63 159 443 183 519 21
66 32 85 54 97 37 19 100 89 118 132 35 85 8 201 -63 262 -19 17 -34 34 -34
39 0 4 14 27 32 51 19 27 32 57 33 80 3 49 68 121 143 158 109 54 216 32 384
-79 194 -127 248 -150 355 -149 128 1 247 86 294 210 31 82 24 208 -15 275
-50 85 -116 119 -262 135 -83 10 -121 29 -130 66 -10 40 4 73 50 123 66 72 71
85 42 119 -21 25 -31 28 -83 28 -59 0 -60 -1 -178 -75 -13 -8 -27 -12 -30 -8
-3 3 11 40 32 82 41 84 39 97 -20 112 -25 6 -34 0 -75 -42 -26 -27 -73 -88
-104 -135 l-58 -87 -63 -11 c-152 -26 -266 -8 -294 48 -16 34 -9 41 42 41 93
0 201 36 253 84 91 82 54 194 -79 241 -128 45 -257 -19 -336 -167 -12 -23 -28
-45 -35 -49 -22 -14 -179 -61 -185 -55 -3 3 7 20 22 38 48 56 75 126 75 193 0
107 -57 165 -162 165 -32 0 -58 4 -58 10 0 5 44 48 98 95 53 46 112 106 129
132 91 135 81 264 -24 309 -48 21 -131 18 -178 -6z m115 -88 c48 -39 -5 -142
-170 -332 -140 -160 -143 -159 -76 13 73 188 133 294 184 321 35 19 36 19 62
-2z m-1333 -564 c-4 -18 -9 -71 -13 -118 -9 -118 -21 -169 -50 -207 -61 -81
-135 -3 -120 126 14 115 96 231 163 231 23 0 25 -3 20 -32z m1232 -3 c50 -25
55 -83 16 -172 -55 -123 -105 -155 -211 -133 -63 13 -64 16 -39 127 20 88 32
117 58 141 54 51 122 65 176 37z m631 -105 c27 -14 34 -57 15 -87 -23 -34 -94
-63 -160 -65 -30 -1 -57 1 -61 4 -6 7 27 72 53 105 37 45 110 66 153 43z
m-3596 -503 c8 -12 7 -21 -5 -32 -21 -21 -49 -9 -49 20 0 36 34 44 54 12z
m2190 -595 c48 -28 93 -95 106 -157 27 -131 -43 -260 -153 -280 -120 -23 -253
131 -233 272 11 82 73 165 138 185 34 11 107 0 142 -20z m1144 -157 c72 -60
78 -166 15 -236 -19 -21 -39 -39 -43 -39 -5 0 -16 24 -24 54 -9 30 -28 69 -42
85 l-26 31 38 65 c22 36 42 65 46 65 3 0 20 -11 36 -25z m-991 -57 c-2 -13 -4
-5 -4 17 -1 22 1 32 4 23 2 -10 2 -28 0 -40z m-450 -40 c-3 -8 -6 -5 -6 6 -1
11 2 17 5 13 3 -3 4 -12 1 -19z m-392 -9 c56 -14 131 -79 156 -134 39 -85 15
-186 -57 -241 -27 -21 -50 -29 -95 -32 -82 -6 -137 16 -193 79 -102 113 -79
261 49 320 46 22 79 23 140 8z m1754 -195 c2 -54 -170 -540 -364 -1029 -90
-229 -213 -479 -336 -681 -87 -146 -124 -217 -138 -271 -14 -53 -47 -92 -111
-133 -71 -45 -62 -48 16 -6 36 20 64 31 62 24 -7 -21 -239 -137 -276 -138 -33
0 -179 47 -382 123 -103 39 -117 47 -135 80 -11 20 -17 38 -14 42 3 3 30 -5
60 -18 103 -46 388 -138 441 -144 44 -4 58 -1 79 15 68 54 456 729 605 1052
96 209 199 448 251 580 25 63 73 187 107 275 35 88 76 194 91 235 25 66 30 72
36 50 4 -14 7 -39 8 -56z m-1512 -6 c-3 -8 -6 -5 -6 6 -1 11 2 17 5 13 3 -3 4
-12 1 -19z m-510 -10 c-3 -8 -6 -5 -6 6 -1 11 2 17 5 13 3 -3 4 -12 1 -19z
m500 -85 c-3 -10 -5 -4 -5 12 0 17 2 24 5 18 2 -7 2 -21 0 -30z m1190 -344
c-189 -405 -227 -485 -339 -709 -128 -257 -361 -680 -375 -680 -3 0 10 26 28
58 123 218 249 468 689 1369 57 117 105 211 107 209 2 -1 -48 -113 -110 -247z
m143 -509 c0 -233 -1 -240 -20 -240 -19 0 -20 7 -20 197 0 159 3 206 16 240 9
24 18 43 20 43 2 0 4 -108 4 -240z m-80 -105 c0 -128 -1 -135 -20 -135 -19 0
-20 7 -20 95 0 64 5 108 16 135 9 22 18 40 20 40 2 0 4 -61 4 -135z m-80 -100
c0 -24 -5 -35 -15 -35 -18 0 -19 11 -3 45 15 33 18 32 18 -10z m-1140 -135 c0
-9 -428 -3 -439 6 -2 2 95 4 217 4 140 0 222 -4 222 -10z m1559 6 c-2 -2 -115
-6 -251 -10 -173 -5 -248 -4 -248 3 0 8 81 11 252 11 138 0 249 -2 247 -4z
m-1412 -403 c91 -32 168 -63 170 -70 7 -18 -36 -120 -53 -127 -22 -8 -358 119
-362 137 -2 9 7 38 19 66 16 37 27 51 42 51 11 0 94 -26 184 -57z m904 -10
c13 -16 12 -17 -3 -4 -17 13 -22 21 -14 21 2 0 10 -8 17 -17z m-1287 -425
c-13 -24 -37 -48 -47 -48 -6 0 2 14 18 30 31 32 41 38 29 18z m56 -11 c0 -2
-14 -16 -32 -33 l-31 -29 22 33 c18 26 41 42 41 29z m41 -25 c-5 -9 -19 -26
-32 -37 -26 -23 -17 -2 14 33 25 27 31 28 18 4z m40 -30 c-5 -10 -18 -25 -27
-33 -16 -12 -17 -12 -9 1 10 18 37 50 42 50 2 0 -1 -8 -6 -18z m39 -31 c-25
-36 -39 -42 -18 -8 8 12 18 28 22 35 5 7 10 11 13 8 3 -3 -5 -19 -17 -35z m61
2 c-15 -29 -40 -59 -41 -50 0 10 39 67 46 67 3 0 0 -8 -5 -17z m50 -20 c-17
-32 -40 -58 -41 -47 0 11 38 64 46 64 3 0 0 -8 -5 -17z m52 -12 c-3 -11 -14
-28 -25 -38 -21 -18 -21 -18 -8 7 13 26 30 50 35 50 2 0 1 -9 -2 -19z m43 -28
c-23 -42 -36 -59 -36 -48 0 12 38 75 45 75 3 0 -1 -12 -9 -27z m35 -44 c-25
-41 -27 -33 -4 16 10 20 19 32 21 27 2 -6 -6 -25 -17 -43z m54 -8 c-8 -17 -18
-31 -21 -31 -3 0 -4 3 -2 8 21 43 32 61 35 58 3 -2 -3 -18 -12 -35z m50 -20
c-22 -43 -29 -39 -10 5 8 20 15 39 16 43 0 3 3 1 5 -6 3 -6 -2 -25 -11 -42z"/>
</g>
</svg>
